<svg width="185" height="65" viewBox="0 0 185 65" fill="none" xmlns="http://www.w3.org/2000/svg">
<path d="M14.544 9.36C16.368 9.36 17.952 9.552 19.296 9.936C20.672 10.32 21.728 10.864 22.464 11.568C23.232 12.24 23.616 13.056 23.616 14.016C23.616 14.656 23.424 15.264 23.04 15.84C22.656 16.384 22.096 16.656 21.36 16.656C20.848 16.656 20.416 16.592 20.064 16.464C19.744 16.304 19.456 16.112 19.2 15.888C18.944 15.664 18.64 15.456 18.288 15.264C17.968 15.072 17.472 14.928 16.8 14.832C16.16 14.704 15.68 14.64 15.36 14.64C13.728 14.64 12.336 14.992 11.184 15.696C10.064 16.4 9.2 17.36 8.592 18.576C7.984 19.76 7.68 21.136 7.68 22.704C7.68 24.24 7.984 25.616 8.592 26.832C9.232 28.016 10.096 28.96 11.184 29.664C12.304 30.368 13.584 30.72 15.024 30.72C15.824 30.72 16.512 30.672 17.088 30.576C17.664 30.48 18.144 30.336 18.528 30.144C18.976 29.888 19.376 29.616 19.728 29.328C20.08 29.04 20.608 28.896 21.312 28.896C22.144 28.896 22.784 29.168 23.232 29.712C23.68 30.224 23.904 30.864 23.904 31.632C23.904 32.432 23.456 33.168 22.56 33.84C21.664 34.48 20.48 35.008 19.008 35.424C17.568 35.808 16 36 14.304 36C11.776 36 9.584 35.424 7.728 34.272C5.872 33.088 4.432 31.488 3.408 29.472C2.416 27.456 1.92 25.2 1.92 22.704C1.92 20.08 2.448 17.776 3.504 15.792C4.592 13.776 6.08 12.208 7.968 11.088C9.888 9.936 12.08 9.36 14.544 9.36Z" fill="white"/>
<path d="M49.0815 9.36C49.9135 9.36 50.6015 9.632 51.1455 10.176C51.6895 10.72 51.9615 11.424 51.9615 12.288V32.592C51.9615 33.424 51.6895 34.128 51.1455 34.704C50.6015 35.248 49.9135 35.52 49.0815 35.52C48.2495 35.52 47.5615 35.248 47.0175 34.704C46.4735 34.128 46.2015 33.424 46.2015 32.592V30.24L47.2575 30.672C47.2575 31.088 47.0335 31.6 46.5855 32.208C46.1375 32.784 45.5295 33.36 44.7615 33.936C43.9935 34.512 43.0815 35.008 42.0255 35.424C41.0015 35.808 39.8815 36 38.6655 36C36.4575 36 34.4575 35.44 32.6655 34.32C30.8735 33.168 29.4495 31.6 28.3935 29.616C27.3695 27.6 26.8575 25.296 26.8575 22.704C26.8575 20.08 27.3695 17.776 28.3935 15.792C29.4495 13.776 30.8575 12.208 32.6175 11.088C34.3775 9.936 36.3295 9.36 38.4735 9.36C39.8495 9.36 41.1135 9.568 42.2655 9.984C43.4175 10.4 44.4095 10.928 45.2415 11.568C46.1055 12.208 46.7615 12.864 47.2095 13.536C47.6895 14.176 47.9295 14.72 47.9295 15.168L46.2015 15.792V12.288C46.2015 11.456 46.4735 10.768 47.0175 10.224C47.5615 9.648 48.2495 9.36 49.0815 9.36ZM39.3855 30.72C40.7935 30.72 42.0255 30.368 43.0815 29.664C44.1375 28.96 44.9535 28 45.5295 26.784C46.1375 25.568 46.4415 24.208 46.4415 22.704C46.4415 21.168 46.1375 19.792 45.5295 18.576C44.9535 17.36 44.1375 16.4 43.0815 15.696C42.0255 14.992 40.7935 14.64 39.3855 14.64C38.0095 14.64 36.7935 14.992 35.7375 15.696C34.6815 16.4 33.8495 17.36 33.2415 18.576C32.6655 19.792 32.3775 21.168 32.3775 22.704C32.3775 24.208 32.6655 25.568 33.2415 26.784C33.8495 28 34.6815 28.96 35.7375 29.664C36.7935 30.368 38.0095 30.72 39.3855 30.72Z" fill="white"/>
<path d="M71.4941 9.36C73.7341 9.36 75.7341 9.936 77.4941 11.088C79.2861 12.208 80.6941 13.76 81.7181 15.744C82.7741 17.728 83.3021 20.032 83.3021 22.656C83.3021 25.28 82.7741 27.6 81.7181 29.616C80.6941 31.6 79.3021 33.168 77.5421 34.32C75.8141 35.44 73.8621 36 71.6861 36C70.4061 36 69.2061 35.792 68.0861 35.376C66.9661 34.96 65.9741 34.432 65.1101 33.792C64.2781 33.152 63.6221 32.512 63.1421 31.872C62.6941 31.2 62.4701 30.64 62.4701 30.192L63.9581 29.568V42.192C63.9581 43.024 63.6861 43.712 63.1421 44.256C62.5981 44.832 61.9101 45.12 61.0781 45.12C60.2461 45.12 59.5581 44.848 59.0141 44.304C58.4701 43.76 58.1981 43.056 58.1981 42.192V12.768C58.1981 11.936 58.4701 11.248 59.0141 10.704C59.5581 10.128 60.2461 9.84 61.0781 9.84C61.9101 9.84 62.5981 10.128 63.1421 10.704C63.6861 11.248 63.9581 11.936 63.9581 12.768V15.12L63.1421 14.688C63.1421 14.272 63.3661 13.776 63.8141 13.2C64.2621 12.592 64.8701 12 65.6381 11.424C66.4061 10.816 67.2861 10.32 68.2781 9.936C69.3021 9.552 70.3741 9.36 71.4941 9.36ZM70.7741 14.64C69.3661 14.64 68.1341 14.992 67.0781 15.696C66.0221 16.4 65.1901 17.36 64.5821 18.576C64.0061 19.76 63.7181 21.12 63.7181 22.656C63.7181 24.16 64.0061 25.536 64.5821 26.784C65.1901 28 66.0221 28.96 67.0781 29.664C68.1341 30.368 69.3661 30.72 70.7741 30.72C72.1821 30.72 73.3981 30.368 74.4221 29.664C75.4781 28.96 76.2941 28 76.8701 26.784C77.4781 25.536 77.7821 24.16 77.7821 22.656C77.7821 21.12 77.4781 19.76 76.8701 18.576C76.2941 17.36 75.4781 16.4 74.4221 15.696C73.3981 14.992 72.1821 14.64 70.7741 14.64Z" fill="white"/>
<path d="M109.363 9.36C110.195 9.36 110.883 9.632 111.427 10.176C111.971 10.72 112.243 11.424 112.243 12.288V32.592C112.243 33.424 111.971 34.128 111.427 34.704C110.883 35.248 110.195 35.52 109.363 35.52C108.531 35.52 107.843 35.248 107.299 34.704C106.755 34.128 106.483 33.424 106.483 32.592V30.24L107.539 30.672C107.539 31.088 107.315 31.6 106.867 32.208C106.419 32.784 105.811 33.36 105.043 33.936C104.275 34.512 103.363 35.008 102.307 35.424C101.283 35.808 100.163 36 98.9467 36C96.7387 36 94.7387 35.44 92.9467 34.32C91.1547 33.168 89.7308 31.6 88.6748 29.616C87.6507 27.6 87.1387 25.296 87.1387 22.704C87.1387 20.08 87.6507 17.776 88.6748 15.792C89.7308 13.776 91.1387 12.208 92.8988 11.088C94.6588 9.936 96.6108 9.36 98.7548 9.36C100.131 9.36 101.395 9.568 102.547 9.984C103.699 10.4 104.691 10.928 105.523 11.568C106.387 12.208 107.043 12.864 107.491 13.536C107.971 14.176 108.211 14.72 108.211 15.168L106.483 15.792V12.288C106.483 11.456 106.755 10.768 107.299 10.224C107.843 9.648 108.531 9.36 109.363 9.36ZM99.6667 30.72C101.075 30.72 102.307 30.368 103.363 29.664C104.419 28.96 105.235 28 105.811 26.784C106.419 25.568 106.723 24.208 106.723 22.704C106.723 21.168 106.419 19.792 105.811 18.576C105.235 17.36 104.419 16.4 103.363 15.696C102.307 14.992 101.075 14.64 99.6667 14.64C98.2907 14.64 97.0748 14.992 96.0188 15.696C94.9628 16.4 94.1308 17.36 93.5228 18.576C92.9467 19.792 92.6588 21.168 92.6588 22.704C92.6588 24.208 92.9467 25.568 93.5228 26.784C94.1308 28 94.9628 28.96 96.0188 29.664C97.0748 30.368 98.2907 30.72 99.6667 30.72Z" fill="white"/>
<path d="M131.775 9.36C134.015 9.36 136.015 9.936 137.775 11.088C139.567 12.208 140.975 13.76 141.999 15.744C143.055 17.728 143.583 20.032 143.583 22.656C143.583 25.28 143.055 27.6 141.999 29.616C140.975 31.6 139.583 33.168 137.823 34.32C136.095 35.44 134.143 36 131.967 36C130.687 36 129.487 35.792 128.367 35.376C127.247 34.96 126.255 34.432 125.391 33.792C124.559 33.152 123.903 32.512 123.423 31.872C122.975 31.2 122.751 30.64 122.751 30.192L124.239 29.568V33.072C124.239 33.904 123.967 34.608 123.423 35.184C122.879 35.728 122.191 36 121.359 36C120.527 36 119.839 35.728 119.295 35.184C118.751 34.64 118.479 33.936 118.479 33.072V2.928C118.479 2.096 118.751 1.408 119.295 0.863997C119.839 0.287999 120.527 0 121.359 0C122.191 0 122.879 0.287999 123.423 0.863997C123.967 1.408 124.239 2.096 124.239 2.928V15.12L123.423 14.688C123.423 14.272 123.647 13.776 124.095 13.2C124.543 12.592 125.151 12 125.919 11.424C126.687 10.816 127.567 10.32 128.559 9.936C129.583 9.552 130.655 9.36 131.775 9.36ZM131.055 14.64C129.647 14.64 128.415 14.992 127.359 15.696C126.303 16.4 125.471 17.36 124.863 18.576C124.287 19.76 123.999 21.12 123.999 22.656C123.999 24.16 124.287 25.536 124.863 26.784C125.471 28 126.303 28.96 127.359 29.664C128.415 30.368 129.647 30.72 131.055 30.72C132.463 30.72 133.679 30.368 134.703 29.664C135.759 28.96 136.575 28 137.151 26.784C137.759 25.536 138.063 24.16 138.063 22.656C138.063 21.12 137.759 19.76 137.151 18.576C136.575 17.36 135.759 16.4 134.703 15.696C133.679 14.992 132.463 14.64 131.055 14.64Z" fill="white"/>
<path d="M154.86 32.592C154.86 33.424 154.572 34.128 153.996 34.704C153.452 35.248 152.764 35.52 151.932 35.52C151.132 35.52 150.46 35.248 149.916 34.704C149.372 34.128 149.1 33.424 149.1 32.592V2.928C149.1 2.096 149.372 1.408 149.916 0.863997C150.492 0.287999 151.196 0 152.028 0C152.86 0 153.532 0.287999 154.044 0.863997C154.588 1.408 154.86 2.096 154.86 2.928V32.592Z" fill="white"/>
<path d="M173.185 36C170.465 36 168.097 35.44 166.081 34.32C164.097 33.168 162.561 31.616 161.473 29.664C160.417 27.712 159.889 25.504 159.889 23.04C159.889 20.16 160.465 17.712 161.617 15.696C162.801 13.648 164.337 12.08 166.225 10.992C168.113 9.904 170.113 9.36 172.225 9.36C173.857 9.36 175.393 9.696 176.833 10.368C178.305 11.04 179.601 11.968 180.721 13.152C181.841 14.304 182.721 15.648 183.361 17.184C184.033 18.72 184.369 20.352 184.369 22.08C184.337 22.848 184.033 23.472 183.457 23.952C182.881 24.432 182.209 24.672 181.441 24.672H163.105L161.665 19.872H179.281L178.225 20.832V19.536C178.161 18.608 177.825 17.776 177.217 17.04C176.641 16.304 175.905 15.728 175.009 15.312C174.145 14.864 173.217 14.64 172.225 14.64C171.265 14.64 170.369 14.768 169.537 15.024C168.705 15.28 167.985 15.712 167.377 16.32C166.769 16.928 166.289 17.744 165.937 18.768C165.585 19.792 165.409 21.088 165.409 22.656C165.409 24.384 165.761 25.856 166.465 27.072C167.201 28.256 168.129 29.168 169.249 29.808C170.401 30.416 171.617 30.72 172.897 30.72C174.081 30.72 175.025 30.624 175.729 30.432C176.433 30.24 176.993 30.016 177.409 29.76C177.857 29.472 178.257 29.232 178.609 29.04C179.185 28.752 179.729 28.608 180.241 28.608C180.945 28.608 181.521 28.848 181.969 29.328C182.449 29.808 182.689 30.368 182.689 31.008C182.689 31.872 182.241 32.656 181.345 33.36C180.513 34.064 179.345 34.688 177.841 35.232C176.337 35.744 174.785 36 173.185 36Z" fill="white"/>
<path d="M6.43359 61.52L5.5957 59.1411H2.32031L1.48242 61.52H0L3.1875 52.9184H4.74609L7.92773 61.52H6.43359ZM5.23242 57.9341L4.41797 55.5903C4.38672 55.4888 4.3418 55.3462 4.2832 55.1626C4.22461 54.9751 4.16602 54.7856 4.10742 54.5942C4.04883 54.3989 4 54.2348 3.96094 54.102C3.92188 54.2622 3.87305 54.4419 3.81445 54.6411C3.75977 54.8364 3.70508 55.02 3.65039 55.1919C3.59961 55.3638 3.56055 55.4966 3.5332 55.5903L2.71289 57.9341H5.23242Z" fill="white"/>
<path d="M15.3633 54.9106C16.1328 54.9106 16.75 55.1919 17.2148 55.7544C17.6836 56.3169 17.918 57.1528 17.918 58.2622C17.918 58.9966 17.8086 59.6157 17.5898 60.1196C17.375 60.6196 17.0723 60.9985 16.6816 61.2563C16.2949 61.5102 15.8438 61.6372 15.3281 61.6372C15 61.6372 14.7148 61.5942 14.4727 61.5083C14.2305 61.4223 14.0234 61.311 13.8516 61.1743C13.6797 61.0337 13.5352 60.8813 13.418 60.7173H13.3359C13.3555 60.8735 13.373 61.0473 13.3887 61.2388C13.4082 61.4263 13.418 61.5981 13.418 61.7544V64.397H12.0352V55.0337H13.1602L13.3535 55.9302H13.418C13.5391 55.7466 13.6855 55.5766 13.8574 55.4204C14.0332 55.2641 14.2441 55.1411 14.4902 55.0513C14.7402 54.9575 15.0312 54.9106 15.3633 54.9106ZM14.9941 56.0356C14.6152 56.0356 14.3105 56.1118 14.0801 56.2641C13.8535 56.4126 13.6875 56.6372 13.582 56.938C13.4805 57.2388 13.4258 57.6157 13.418 58.0688V58.2622C13.418 58.7427 13.4668 59.1509 13.5645 59.4868C13.666 59.8188 13.832 60.0727 14.0625 60.2485C14.2969 60.4204 14.6133 60.5063 15.0117 60.5063C15.3477 60.5063 15.625 60.4145 15.8438 60.2309C16.0664 60.0473 16.2324 59.7856 16.3418 59.4458C16.4512 59.1059 16.5059 58.7055 16.5059 58.2446C16.5059 57.5454 16.3809 57.0024 16.1309 56.6157C15.8848 56.229 15.5059 56.0356 14.9941 56.0356Z" fill="white"/>
<path d="M22.7988 54.9106C22.9082 54.9106 23.0273 54.9165 23.1562 54.9282C23.2852 54.9399 23.3965 54.9555 23.4902 54.9751L23.3613 56.2641C23.2793 56.2407 23.1777 56.2231 23.0566 56.2114C22.9395 56.1997 22.834 56.1938 22.7402 56.1938C22.4941 56.1938 22.2598 56.2348 22.0371 56.3169C21.8145 56.395 21.6172 56.5161 21.4453 56.6802C21.2734 56.8403 21.1387 57.0415 21.041 57.2837C20.9434 57.5259 20.8945 57.8071 20.8945 58.1274V61.52H19.5117V55.0337H20.5898L20.7773 56.1763H20.8418C20.9707 55.9458 21.1309 55.7348 21.3223 55.5434C21.5137 55.352 21.7324 55.1997 21.9785 55.0864C22.2285 54.9692 22.502 54.9106 22.7988 54.9106Z" fill="white"/>
<path d="M30.4336 58.2622C30.4336 58.8013 30.3633 59.2798 30.2227 59.6977C30.082 60.1157 29.877 60.4692 29.6074 60.7583C29.3379 61.0434 29.0137 61.2622 28.6348 61.4145C28.2559 61.563 27.8281 61.6372 27.3516 61.6372C26.9062 61.6372 26.498 61.563 26.127 61.4145C25.7559 61.2622 25.4336 61.0434 25.1602 60.7583C24.8906 60.4692 24.6816 60.1157 24.5332 59.6977C24.3848 59.2798 24.3105 58.8013 24.3105 58.2622C24.3105 57.5473 24.4336 56.9419 24.6797 56.4458C24.9297 55.9458 25.2852 55.5649 25.7461 55.3032C26.207 55.0415 26.7559 54.9106 27.3926 54.9106C27.9902 54.9106 28.5176 55.0415 28.9746 55.3032C29.4316 55.5649 29.7891 55.9458 30.0469 56.4458C30.3047 56.9458 30.4336 57.5513 30.4336 58.2622ZM25.7285 58.2622C25.7285 58.7348 25.7852 59.1391 25.8984 59.4751C26.0156 59.811 26.1953 60.0688 26.4375 60.2485C26.6797 60.4243 26.9922 60.5122 27.375 60.5122C27.7578 60.5122 28.0703 60.4243 28.3125 60.2485C28.5547 60.0688 28.7324 59.811 28.8457 59.4751C28.959 59.1391 29.0156 58.7348 29.0156 58.2622C29.0156 57.7895 28.959 57.3891 28.8457 57.061C28.7324 56.729 28.5547 56.477 28.3125 56.3052C28.0703 56.1294 27.7559 56.0415 27.3691 56.0415C26.7988 56.0415 26.3828 56.2329 26.1211 56.6157C25.8594 56.9985 25.7285 57.5473 25.7285 58.2622Z" fill="white"/>
<path d="M34.1953 61.6372C33.4219 61.6372 32.8008 61.3559 32.332 60.7934C31.8672 60.227 31.6348 59.393 31.6348 58.2915C31.6348 57.1782 31.8711 56.3364 32.3438 55.7661C32.8203 55.1958 33.4473 54.9106 34.2246 54.9106C34.5527 54.9106 34.8398 54.9555 35.0859 55.0454C35.332 55.1313 35.543 55.2485 35.7188 55.397C35.8984 55.5454 36.0508 55.7114 36.1758 55.895H36.2402C36.2207 55.7739 36.1973 55.6001 36.1699 55.3735C36.1465 55.143 36.1348 54.9302 36.1348 54.7348V52.4028H37.5176V61.52H36.4395L36.1934 60.6352H36.1348C36.0176 60.8227 35.8691 60.9927 35.6895 61.145C35.5137 61.2934 35.3027 61.4126 35.0566 61.5024C34.8145 61.5923 34.5273 61.6372 34.1953 61.6372ZM34.582 60.518C35.1719 60.518 35.5879 60.3481 35.8301 60.0083C36.0723 59.6684 36.1973 59.1587 36.2051 58.479V58.2973C36.2051 57.5708 36.0879 57.0141 35.8535 56.6274C35.6191 56.2368 35.1914 56.0415 34.5703 56.0415C34.0742 56.0415 33.6953 56.2427 33.4336 56.645C33.1758 57.0434 33.0469 57.6001 33.0469 58.3149C33.0469 59.0298 33.1758 59.5766 33.4336 59.9555C33.6953 60.3305 34.0781 60.518 34.582 60.518Z" fill="white"/>
<path d="M45.1465 55.0337V61.52H44.0625L43.875 60.647H43.7988C43.6621 60.8696 43.4883 61.0552 43.2773 61.2036C43.0664 61.3481 42.832 61.4555 42.5742 61.5259C42.3164 61.6001 42.0449 61.6372 41.7598 61.6372C41.2715 61.6372 40.8535 61.5552 40.5059 61.3911C40.1621 61.2231 39.8984 60.9653 39.7148 60.6177C39.5312 60.27 39.4395 59.8208 39.4395 59.27V55.0337H40.8223V59.0122C40.8223 59.5161 40.9238 59.893 41.127 60.143C41.334 60.393 41.6543 60.518 42.0879 60.518C42.5059 60.518 42.8379 60.4321 43.084 60.2602C43.3301 60.0884 43.5039 59.8345 43.6055 59.4985C43.7109 59.1626 43.7637 58.7505 43.7637 58.2622V55.0337H45.1465Z" fill="white"/>
<path d="M49.7344 61.6372C49.1211 61.6372 48.5898 61.518 48.1406 61.2798C47.6914 61.0415 47.3457 60.6763 47.1035 60.1841C46.8613 59.6919 46.7402 59.0669 46.7402 58.3091C46.7402 57.52 46.873 56.8755 47.1387 56.3755C47.4043 55.8755 47.7715 55.5063 48.2402 55.268C48.7129 55.0298 49.2539 54.9106 49.8633 54.9106C50.25 54.9106 50.5996 54.9497 50.9121 55.0278C51.2285 55.102 51.4961 55.1938 51.7148 55.3032L51.3047 56.4048C51.0664 56.3071 50.8223 56.2251 50.5723 56.1587C50.3223 56.0923 50.082 56.0591 49.8516 56.0591C49.4727 56.0591 49.1562 56.143 48.9023 56.311C48.6523 56.479 48.4648 56.729 48.3398 57.061C48.2188 57.393 48.1582 57.8052 48.1582 58.2973C48.1582 58.7739 48.2207 59.1763 48.3457 59.5044C48.4707 59.8286 48.6562 60.0747 48.9023 60.2427C49.1484 60.4067 49.4512 60.4888 49.8105 60.4888C50.166 60.4888 50.4844 60.4458 50.7656 60.3598C51.0469 60.2739 51.3125 60.1626 51.5625 60.0259V61.2212C51.3164 61.3618 51.0527 61.4653 50.7715 61.5317C50.4902 61.602 50.1445 61.6372 49.7344 61.6372Z" fill="white"/>
<path d="M55.5 60.5239C55.6797 60.5239 55.8574 60.5083 56.0332 60.477C56.209 60.4419 56.3691 60.4009 56.5137 60.354V61.397C56.3613 61.4634 56.1641 61.52 55.9219 61.5669C55.6797 61.6138 55.4277 61.6372 55.166 61.6372C54.7988 61.6372 54.4688 61.5766 54.1758 61.4555C53.8828 61.3305 53.6504 61.1177 53.4785 60.8169C53.3066 60.5161 53.2207 60.1001 53.2207 59.5688V56.0825H52.3359V55.4673L53.2852 54.9809L53.7363 53.5923H54.6035V55.0337H56.4609V56.0825H54.6035V59.5513C54.6035 59.8794 54.6855 60.1235 54.8496 60.2837C55.0137 60.4438 55.2305 60.5239 55.5 60.5239Z" fill="white"/>
<path d="M64.1895 56.0825H62.6133V61.52H61.2363V56.0825H60.1758V55.4204L61.2363 55.0161V54.5649C61.2363 54.0141 61.3223 53.5766 61.4941 53.2524C61.6699 52.9282 61.9199 52.6958 62.2441 52.5552C62.5723 52.4106 62.9629 52.3384 63.416 52.3384C63.7129 52.3384 63.9844 52.3638 64.2305 52.4145C64.4766 52.4614 64.6836 52.5161 64.8516 52.5786L64.4941 53.6216C64.3613 53.5786 64.2129 53.5395 64.0488 53.5044C63.8848 53.4653 63.709 53.4458 63.5215 53.4458C63.209 53.4458 62.9785 53.5434 62.8301 53.7388C62.6855 53.9341 62.6133 54.2192 62.6133 54.5942V55.0337H64.1895V56.0825Z" fill="white"/>
<path d="M68.584 54.9106C68.6934 54.9106 68.8125 54.9165 68.9414 54.9282C69.0703 54.9399 69.1816 54.9555 69.2754 54.9751L69.1465 56.2641C69.0645 56.2407 68.9629 56.2231 68.8418 56.2114C68.7246 56.1997 68.6191 56.1938 68.5254 56.1938C68.2793 56.1938 68.0449 56.2348 67.8223 56.3169C67.5996 56.395 67.4023 56.5161 67.2305 56.6802C67.0586 56.8403 66.9238 57.0415 66.8262 57.2837C66.7285 57.5259 66.6797 57.8071 66.6797 58.1274V61.52H65.2969V55.0337H66.375L66.5625 56.1763H66.627C66.7559 55.9458 66.916 55.7348 67.1074 55.5434C67.2988 55.352 67.5176 55.1997 67.7637 55.0864C68.0137 54.9692 68.2871 54.9106 68.584 54.9106Z" fill="white"/>
<path d="M76.2188 58.2622C76.2188 58.8013 76.1484 59.2798 76.0078 59.6977C75.8672 60.1157 75.6621 60.4692 75.3926 60.7583C75.123 61.0434 74.7988 61.2622 74.4199 61.4145C74.041 61.563 73.6133 61.6372 73.1367 61.6372C72.6914 61.6372 72.2832 61.563 71.9121 61.4145C71.541 61.2622 71.2188 61.0434 70.9453 60.7583C70.6758 60.4692 70.4668 60.1157 70.3184 59.6977C70.1699 59.2798 70.0957 58.8013 70.0957 58.2622C70.0957 57.5473 70.2188 56.9419 70.4648 56.4458C70.7148 55.9458 71.0703 55.5649 71.5312 55.3032C71.9922 55.0415 72.541 54.9106 73.1777 54.9106C73.7754 54.9106 74.3027 55.0415 74.7598 55.3032C75.2168 55.5649 75.5742 55.9458 75.832 56.4458C76.0898 56.9458 76.2188 57.5513 76.2188 58.2622ZM71.5137 58.2622C71.5137 58.7348 71.5703 59.1391 71.6836 59.4751C71.8008 59.811 71.9805 60.0688 72.2227 60.2485C72.4648 60.4243 72.7773 60.5122 73.1602 60.5122C73.543 60.5122 73.8555 60.4243 74.0977 60.2485C74.3398 60.0688 74.5176 59.811 74.6309 59.4751C74.7441 59.1391 74.8008 58.7348 74.8008 58.2622C74.8008 57.7895 74.7441 57.3891 74.6309 57.061C74.5176 56.729 74.3398 56.477 74.0977 56.3052C73.8555 56.1294 73.541 56.0415 73.1543 56.0415C72.584 56.0415 72.168 56.2329 71.9062 56.6157C71.6445 56.9985 71.5137 57.5473 71.5137 58.2622Z" fill="white"/>
<path d="M85.1309 54.9106C85.8574 54.9106 86.4043 55.0981 86.7715 55.4731C87.1426 55.8481 87.3281 56.4497 87.3281 57.2778V61.52H85.9512V57.5239C85.9512 57.0317 85.8555 56.6606 85.6641 56.4106C85.4727 56.1606 85.1816 56.0356 84.791 56.0356C84.2441 56.0356 83.8496 56.2114 83.6074 56.563C83.3691 56.9106 83.25 57.4165 83.25 58.0805V61.52H81.873V57.5239C81.873 57.1958 81.8301 56.9223 81.7441 56.7036C81.6621 56.4809 81.5352 56.3149 81.3633 56.2055C81.1914 56.0923 80.9746 56.0356 80.7129 56.0356C80.334 56.0356 80.0312 56.1216 79.8047 56.2934C79.582 56.4653 79.4219 56.7192 79.3242 57.0552C79.2266 57.3872 79.1777 57.7954 79.1777 58.2798V61.52H77.8008V55.0337H78.873L79.0664 55.9067H79.1426C79.2754 55.6802 79.4395 55.4946 79.6348 55.3501C79.834 55.2016 80.0547 55.0923 80.2969 55.022C80.5391 54.9477 80.791 54.9106 81.0527 54.9106C81.5371 54.9106 81.9453 54.9966 82.2773 55.1684C82.6094 55.3364 82.8574 55.5942 83.0215 55.9419H83.127C83.3301 55.5903 83.6133 55.3305 83.9766 55.1626C84.3398 54.9946 84.7246 54.9106 85.1309 54.9106Z" fill="white"/>
<path d="M99.6562 61.52H97.9277L93.7324 54.6821H93.6797C93.6953 54.9126 93.709 55.1567 93.7207 55.4145C93.7363 55.6723 93.748 55.938 93.7559 56.2114C93.7676 56.4848 93.7773 56.7622 93.7852 57.0434V61.52H92.5078V52.9536H94.2246L98.4141 59.7446H98.4551C98.4473 59.5454 98.4375 59.3169 98.4258 59.0591C98.4141 58.8013 98.4023 58.5356 98.3906 58.2622C98.3828 57.9848 98.377 57.7173 98.373 57.4595V52.9536H99.6562V61.52Z" fill="white"/>
<path d="M103.143 52.4028V54.6938C103.143 54.9321 103.135 55.1645 103.119 55.3911C103.107 55.6177 103.094 55.7934 103.078 55.9184H103.154C103.291 55.6919 103.459 55.5063 103.658 55.3618C103.857 55.2134 104.08 55.102 104.326 55.0278C104.576 54.9536 104.842 54.9165 105.123 54.9165C105.619 54.9165 106.041 55.0005 106.389 55.1684C106.736 55.3325 107.002 55.5884 107.186 55.936C107.373 56.2837 107.467 56.7348 107.467 57.2895V61.52H106.09V57.5473C106.09 57.0434 105.986 56.6665 105.779 56.4165C105.572 56.1626 105.252 56.0356 104.818 56.0356C104.4 56.0356 104.068 56.1235 103.822 56.2993C103.58 56.4712 103.406 56.727 103.301 57.0669C103.195 57.4028 103.143 57.813 103.143 58.2973V61.52H101.766V52.4028H103.143Z" fill="white"/>
<path d="M111.938 54.9106C112.758 54.9106 113.377 55.0923 113.795 55.4555C114.217 55.8188 114.428 56.3852 114.428 57.1548V61.52H113.449L113.186 60.6001H113.139C112.955 60.8345 112.766 61.0278 112.57 61.1802C112.375 61.3325 112.148 61.4458 111.891 61.52C111.637 61.5981 111.326 61.6372 110.959 61.6372C110.572 61.6372 110.227 61.5669 109.922 61.4263C109.617 61.2817 109.377 61.063 109.201 60.77C109.025 60.477 108.938 60.1059 108.938 59.6567C108.938 58.9888 109.186 58.4868 109.682 58.1509C110.182 57.8149 110.936 57.6294 111.943 57.5942L113.068 57.5532V57.2134C113.068 56.7641 112.963 56.4438 112.752 56.2524C112.545 56.061 112.252 55.9653 111.873 55.9653C111.549 55.9653 111.234 56.0122 110.93 56.1059C110.625 56.1997 110.328 56.3149 110.039 56.4516L109.594 55.479C109.91 55.311 110.27 55.1743 110.672 55.0688C111.078 54.9634 111.5 54.9106 111.938 54.9106ZM113.062 58.4204L112.225 58.4497C111.537 58.4731 111.055 58.5903 110.777 58.8013C110.5 59.0122 110.361 59.3013 110.361 59.6684C110.361 59.9888 110.457 60.2231 110.648 60.3716C110.84 60.5161 111.092 60.5884 111.404 60.5884C111.881 60.5884 112.275 60.4536 112.588 60.1841C112.904 59.9106 113.062 59.5102 113.062 58.9829V58.4204Z" fill="white"/>
<path d="M119.736 54.9106C120.467 54.9106 121.035 55.1001 121.441 55.479C121.852 55.854 122.057 56.4575 122.057 57.2895V61.52H120.68V57.5473C120.68 57.0434 120.576 56.6665 120.369 56.4165C120.162 56.1626 119.842 56.0356 119.408 56.0356C118.779 56.0356 118.342 56.229 118.096 56.6157C117.854 57.0024 117.732 57.563 117.732 58.2973V61.52H116.355V55.0337H117.428L117.621 55.9126H117.697C117.838 55.686 118.012 55.5005 118.219 55.3559C118.43 55.2075 118.664 55.0962 118.922 55.022C119.184 54.9477 119.455 54.9106 119.736 54.9106Z" fill="white"/>
<path d="M126.598 61.6372C125.984 61.6372 125.453 61.518 125.004 61.2798C124.555 61.0415 124.209 60.6763 123.967 60.1841C123.725 59.6919 123.604 59.0669 123.604 58.3091C123.604 57.52 123.736 56.8755 124.002 56.3755C124.268 55.8755 124.635 55.5063 125.104 55.268C125.576 55.0298 126.117 54.9106 126.727 54.9106C127.113 54.9106 127.463 54.9497 127.775 55.0278C128.092 55.102 128.359 55.1938 128.578 55.3032L128.168 56.4048C127.93 56.3071 127.686 56.2251 127.436 56.1587C127.186 56.0923 126.945 56.0591 126.715 56.0591C126.336 56.0591 126.02 56.143 125.766 56.311C125.516 56.479 125.328 56.729 125.203 57.061C125.082 57.393 125.021 57.8052 125.021 58.2973C125.021 58.7739 125.084 59.1763 125.209 59.5044C125.334 59.8286 125.52 60.0747 125.766 60.2427C126.012 60.4067 126.314 60.4888 126.674 60.4888C127.029 60.4888 127.348 60.4458 127.629 60.3598C127.91 60.2739 128.176 60.1626 128.426 60.0259V61.2212C128.18 61.3618 127.916 61.4653 127.635 61.5317C127.354 61.602 127.008 61.6372 126.598 61.6372Z" fill="white"/>
<path d="M132.533 54.9106C133.111 54.9106 133.607 55.0298 134.021 55.268C134.436 55.5063 134.754 55.8442 134.977 56.2817C135.199 56.7192 135.311 57.2427 135.311 57.852V58.5903H130.98C130.996 59.2192 131.164 59.7036 131.484 60.0434C131.809 60.3833 132.262 60.5532 132.844 60.5532C133.258 60.5532 133.629 60.5141 133.957 60.436C134.289 60.354 134.631 60.2348 134.982 60.0786V61.1977C134.658 61.3501 134.328 61.4614 133.992 61.5317C133.656 61.602 133.254 61.6372 132.785 61.6372C132.148 61.6372 131.588 61.5141 131.104 61.268C130.623 61.018 130.246 60.647 129.973 60.1548C129.703 59.6626 129.568 59.0513 129.568 58.3208C129.568 57.5942 129.691 56.977 129.938 56.4692C130.184 55.9614 130.529 55.5747 130.975 55.3091C131.42 55.0434 131.939 54.9106 132.533 54.9106ZM132.533 55.9477C132.1 55.9477 131.748 56.0884 131.479 56.3696C131.213 56.6509 131.057 57.063 131.01 57.6059H133.963C133.959 57.2817 133.904 56.9946 133.799 56.7446C133.697 56.4946 133.541 56.2993 133.33 56.1587C133.123 56.018 132.857 55.9477 132.533 55.9477Z" fill="white"/>
<path d="M140.461 56.8677H143.66V61.1684C143.211 61.3169 142.746 61.4321 142.266 61.5141C141.785 61.5962 141.246 61.6372 140.648 61.6372C139.777 61.6372 139.039 61.4653 138.434 61.1216C137.832 60.7739 137.375 60.272 137.062 59.6157C136.75 58.9555 136.594 58.1606 136.594 57.2309C136.594 56.3364 136.768 55.561 137.115 54.9048C137.463 54.2446 137.969 53.7348 138.633 53.3755C139.297 53.0122 140.102 52.8305 141.047 52.8305C141.512 52.8305 141.961 52.8774 142.395 52.9712C142.832 53.061 143.232 53.186 143.596 53.3462L143.104 54.5063C142.814 54.3696 142.49 54.2544 142.131 54.1606C141.771 54.0669 141.398 54.02 141.012 54.02C140.398 54.02 139.869 54.1528 139.424 54.4184C138.982 54.6841 138.643 55.0591 138.404 55.5434C138.166 56.0239 138.047 56.5923 138.047 57.2485C138.047 57.8852 138.143 58.4438 138.334 58.9243C138.525 59.4048 138.824 59.7798 139.23 60.0493C139.641 60.3149 140.17 60.4477 140.818 60.4477C141.143 60.4477 141.418 60.4302 141.645 60.395C141.871 60.3598 142.08 60.3208 142.271 60.2778V58.0688H140.461V56.8677Z" fill="white"/>
<path d="M148.119 52.9536C148.857 52.9536 149.467 53.0434 149.947 53.2231C150.432 53.4028 150.791 53.6763 151.025 54.0434C151.264 54.4106 151.383 54.8774 151.383 55.4438C151.383 55.8657 151.305 56.2251 151.148 56.522C150.992 56.8188 150.787 57.0649 150.533 57.2602C150.279 57.4555 150.008 57.6118 149.719 57.729L152.15 61.52H150.562L148.494 58.0864H147.117V61.52H145.711V52.9536H148.119ZM148.025 54.1255H147.117V56.9263H148.09C148.742 56.9263 149.215 56.8052 149.508 56.563C149.805 56.3208 149.953 55.9634 149.953 55.4907C149.953 54.9946 149.795 54.643 149.479 54.436C149.166 54.229 148.682 54.1255 148.025 54.1255Z" fill="white"/>
<path d="M157.025 54.0259C156.615 54.0259 156.248 54.1001 155.924 54.2485C155.604 54.397 155.332 54.6118 155.109 54.893C154.887 55.1704 154.717 55.5083 154.6 55.9067C154.482 56.3013 154.424 56.7466 154.424 57.2427C154.424 57.9067 154.518 58.479 154.705 58.9595C154.893 59.436 155.178 59.8032 155.561 60.061C155.943 60.3149 156.428 60.4419 157.014 60.4419C157.377 60.4419 157.73 60.4067 158.074 60.3364C158.418 60.2661 158.773 60.1704 159.141 60.0493V61.2446C158.793 61.3813 158.441 61.4809 158.086 61.5434C157.73 61.6059 157.32 61.6372 156.855 61.6372C155.98 61.6372 155.254 61.4555 154.676 61.0923C154.102 60.729 153.672 60.2173 153.387 59.5571C153.105 58.897 152.965 58.1235 152.965 57.2368C152.965 56.5884 153.055 55.9946 153.234 55.4555C153.414 54.9165 153.676 54.4516 154.02 54.061C154.363 53.6665 154.787 53.3638 155.291 53.1528C155.799 52.938 156.379 52.8305 157.031 52.8305C157.461 52.8305 157.883 52.8794 158.297 52.977C158.715 53.0708 159.102 53.2055 159.457 53.3813L158.965 54.5415C158.668 54.4009 158.357 54.2798 158.033 54.1782C157.709 54.0766 157.373 54.0259 157.025 54.0259Z" fill="white"/>
</svg>
